<svg width="25" height="24" viewBox="0 0 25 24" fill="none" xmlns="http://www.w3.org/2000/svg">
<path fill-rule="evenodd" clip-rule="evenodd" d="M15.3892 0.0572435C14.5744 0.0429968 13.7595 0.0287478 12.9591 0C12.2099 0.0376884 11.4853 0.0255376 10.7363 0.0129782C10.3525 0.00654274 9.96225 0 9.55908 0C8.45744 0.00977241 7.35819 0.104386 6.27108 0.283C3.99227 0.639061 2.11929 2.26986 1.45308 4.478C1.10424 5.6735 0.951257 6.9176 1.00008 8.162V15.3C0.996062 16.4282 1.1304 17.5525 1.40008 18.648C1.75635 20.9253 3.38568 22.7971 5.59208 23.464C6.78758 23.8128 8.03168 23.9658 9.27608 23.917C10.0737 23.917 10.8639 23.9234 11.6516 23.9297C13.2191 23.9424 14.7764 23.9549 16.3611 23.917C17.4624 23.9072 18.5613 23.8126 19.6481 23.634C21.9266 23.2781 23.7995 21.6478 24.4661 19.44C24.8149 18.2445 24.9679 17.0004 24.9191 15.756C24.9191 14.9623 24.9254 14.1687 24.9317 13.3751C24.9444 11.7881 24.9571 10.2013 24.9191 8.614C24.8811 7.51421 24.7866 6.4171 24.6361 5.327C24.3413 3.56976 23.2825 2.03371 21.7451 1.133C20.5315 0.459047 19.1652 0.107844 17.7771 0.113C16.9905 0.0852435 16.1899 0.0712446 15.3892 0.0572435ZM22.7081 8.955C22.7081 9.919 22.7081 10.825 22.7651 11.789C22.7455 12.4108 22.7327 13.0334 22.7198 13.6539C22.6953 14.8407 22.671 16.0203 22.6001 17.174C22.6296 18.5088 22.0446 19.7833 21.0131 20.631C20.3563 21.1756 19.5412 21.4937 18.6891 21.538C17.7865 21.6511 16.8777 21.7079 15.9681 21.708C15.2839 21.708 14.606 21.7144 13.9323 21.7208C12.5972 21.7334 11.2787 21.7459 9.96008 21.708C8.89766 21.7191 7.83611 21.6431 6.78608 21.481C4.85536 21.2382 3.38872 19.626 3.32908 17.681C3.21608 16.32 3.15908 14.903 3.15908 13.543C3.15908 11.389 3.15908 9.235 3.21608 7.081C3.25507 6.5065 3.34985 5.93715 3.49908 5.381C3.92014 3.79394 5.26831 2.62539 6.89908 2.434C7.89067 2.27203 8.89441 2.19608 9.89908 2.207C11.9401 2.15 13.9241 2.15 15.9641 2.207C17.0271 2.16967 18.0912 2.24577 19.1381 2.434C21.0262 2.73944 22.4437 4.32363 22.5381 6.234C22.6512 7.13659 22.7079 8.04535 22.7081 8.955Z" fill="white"/>
<path fill-rule="evenodd" clip-rule="evenodd" d="M15.2892 17.6211C17.5838 16.6767 19.0814 14.4405 19.0811 11.9592C19.0927 8.59565 16.3796 5.85744 13.0161 5.83816C10.5348 5.81505 8.28502 7.292 7.31952 9.57783C6.35403 11.8637 6.86382 14.5062 8.61033 16.2689C10.3568 18.0315 12.9946 18.5656 15.2892 17.6211ZM16.9281 11.9592C16.9281 14.1506 15.1516 15.9272 12.9601 15.9272H12.9591C11.9048 15.9336 10.8919 15.5176 10.1465 14.772C9.40115 14.0264 8.98538 13.0134 8.99209 11.9592C8.99209 9.76769 10.7686 7.99116 12.9601 7.99116C15.1516 7.99116 16.9281 9.76769 16.9281 11.9592Z" fill="white"/>
<path fill-rule="evenodd" clip-rule="evenodd" d="M20.7239 5.61089C20.7362 6.40787 20.1037 7.06577 19.3069 7.08489C18.5234 7.06428 17.8989 6.42319 17.8989 5.63939C17.8989 4.8556 18.5234 4.2145 19.3069 4.19389C19.6894 4.17056 20.0635 4.31234 20.3345 4.5833C20.6055 4.85426 20.7472 5.2284 20.7239 5.61089Z" fill="white"/>
</svg>
