<svg width="26" height="20" viewBox="0 0 26 20" fill="none" xmlns="http://www.w3.org/2000/svg">
<path fill-rule="evenodd" clip-rule="evenodd" d="M25.9968 2.37515C25.0255 2.79344 23.9915 3.06718 22.9316 3.18664C24.0421 2.56056 24.8712 1.571 25.2615 0.405521C24.2139 0.979901 23.0754 1.39107 21.8895 1.62325C20.3991 0.0970515 18.0719 -0.409732 16.0256 0.346297C13.9793 1.10233 12.632 2.96671 12.6308 5.04403C12.6383 5.43292 12.6794 5.82059 12.7537 6.20316C8.46311 6.0175 4.46458 4.0949 1.77843 0.925987C1.2865 1.69472 1.0318 2.57823 1.04311 3.47667C1.03809 5.17748 1.93612 6.76715 3.43396 7.70893C2.57134 7.70358 1.72539 7.48366 0.981132 7.07126V7.12887C0.98276 9.54242 2.77434 11.6241 5.27332 12.116C4.80688 12.186 4.33581 12.2248 3.8636 12.2322C3.53318 12.2258 3.20437 12.1868 2.88247 12.116C3.57864 14.195 5.60389 15.6195 7.90998 15.652C6.01665 17.0412 3.68861 17.796 1.29207 17.7974C0.860453 17.807 0.428661 17.7875 0 17.7388C2.44852 19.2303 5.30312 20.0157 8.21567 19.9995C12.2593 20.0321 16.1473 18.528 19.0071 15.8247C21.8668 13.1214 23.4587 9.4455 23.4253 5.6221V4.98443C24.4356 4.26086 25.3065 3.37821 26 2.37515H25.9968Z" fill="white"/>
</svg>
