<svg width="256" height="56" viewBox="0 0 256 56" fill="none" xmlns="http://www.w3.org/2000/svg">
<path d="M95 -33.5931C95 -30.8316 92.7614 -28.5931 90 -28.5931H15.8774C14.4661 -28.5931 13.2312 -28.0638 12.1727 -27.0053C11.2024 -26.035 10.7173 -24.8442 10.7173 -23.4329V40.0769C10.7173 41.4882 11.2024 42.7231 12.1727 43.7816C13.2312 44.7519 14.4661 45.237 15.8774 45.237H90C92.7614 45.237 95 47.4756 95 50.237V50.9543C95 53.7157 92.7614 55.9543 90 55.9543H15.8774C11.467 55.9543 7.71818 54.4107 4.6309 51.3234C1.54362 48.2361 -1.52588e-05 44.4873 -1.52588e-05 40.0769V-23.4329C-1.52588e-05 -27.8433 1.54362 -31.5921 4.6309 -34.6794C7.71818 -37.7667 11.467 -39.3103 15.8774 -39.3103H90C92.7614 -39.3103 95 -37.0717 95 -34.3103V-33.5931Z" fill="#2D2D2D" fill-opacity="0.2"/>
<path d="M65.7557 25.8313C68.5171 25.8313 70.7427 28.0699 70.7427 30.8313V31.5486C70.7427 34.31 68.5041 36.5486 65.7427 36.5486H25.2877C22.5263 36.5486 20.2877 34.31 20.2877 31.5486V30.8313C20.2877 28.0699 22.5203 25.8313 25.2818 25.8313C34.536 25.8313 54.4351 25.8313 65.7557 25.8313Z" fill="#2D2D2D" fill-opacity="0.2"/>
<path d="M86.44 12.23C86.44 13.572 85.352 14.66 84.01 14.66H50.56C49.92 14.66 49.36 14.9 48.88 15.38C48.44 15.82 48.22 16.36 48.22 17V45.8C48.22 46.44 48.44 47 48.88 47.48C49.36 47.92 49.92 48.14 50.56 48.14H84.01C85.352 48.14 86.44 49.2279 86.44 50.57C86.44 51.912 85.352 53 84.01 53H50.56C48.56 53 46.86 52.3 45.46 50.9C44.06 49.5 43.36 47.8 43.36 45.8V17C43.36 15 44.06 13.3 45.46 11.9C46.86 10.5 48.56 9.79996 50.56 9.79996H84.01C85.352 9.79996 86.44 10.8879 86.44 12.23Z" fill="white"/>
<path d="M73.0126 39.34C74.3547 39.34 75.44 40.4279 75.44 41.77C75.44 43.112 74.352 44.2 73.01 44.2H54.99C53.6479 44.2 52.56 43.112 52.56 41.77C52.56 40.4279 53.6408 39.34 54.9828 39.34C59.1981 39.34 67.9172 39.34 73.0126 39.34Z" fill="white"/>
<path d="M107.457 40.902C108.597 40.902 109.545 40.584 110.301 39.948C111.069 39.3 111.483 38.478 111.543 37.482H112.947C112.899 38.886 112.347 40.032 111.291 40.92C110.235 41.796 108.963 42.234 107.475 42.234C105.639 42.234 104.127 41.646 102.939 40.47C101.751 39.294 101.157 37.728 101.157 35.772C101.157 33.732 101.757 32.088 102.957 30.84C104.169 29.58 105.681 28.95 107.493 28.95C108.969 28.95 110.199 29.328 111.183 30.084C112.167 30.84 112.707 31.842 112.803 33.09H111.471C111.351 32.298 110.937 31.638 110.229 31.11C109.533 30.582 108.615 30.318 107.475 30.318C106.155 30.318 105.021 30.81 104.073 31.794C103.125 32.778 102.651 34.056 102.651 35.628C102.651 37.224 103.107 38.502 104.019 39.462C104.931 40.422 106.077 40.902 107.457 40.902ZM132.365 42.252C130.517 42.252 128.981 41.622 127.757 40.362C126.533 39.102 125.921 37.506 125.921 35.574C125.921 33.678 126.539 32.106 127.775 30.858C129.011 29.598 130.541 28.968 132.365 28.968C134.189 28.968 135.719 29.598 136.955 30.858C138.191 32.106 138.809 33.678 138.809 35.574C138.809 37.506 138.197 39.102 136.973 40.362C135.761 41.622 134.225 42.252 132.365 42.252ZM135.875 31.83C134.939 30.822 133.769 30.318 132.365 30.318C130.961 30.318 129.791 30.822 128.855 31.83C127.919 32.826 127.451 34.074 127.451 35.574C127.451 37.11 127.919 38.382 128.855 39.39C129.791 40.398 130.967 40.902 132.383 40.902C133.775 40.902 134.939 40.398 135.875 39.39C136.811 38.382 137.279 37.116 137.279 35.592C137.279 34.092 136.811 32.838 135.875 31.83ZM158.362 37.806H157.822L153.646 31.776V42H152.152V29.22H153.664L158.092 35.754L162.61 29.22H164.032V42H162.52V31.776L158.362 37.806ZM185.842 42H177.724V29.22H185.806V30.552H179.236V34.638H185.5V35.916H179.236V40.668H185.842V42ZM206.692 42L203.956 37.392C203.86 37.404 203.722 37.41 203.542 37.41H200.59V42H199.06V29.22H203.794C204.562 29.22 205.27 29.364 205.918 29.652C206.578 29.928 207.13 30.39 207.574 31.038C208.03 31.686 208.258 32.466 208.258 33.378C208.258 34.182 208.012 34.932 207.52 35.628C207.028 36.324 206.326 36.828 205.414 37.14L208.366 42H206.692ZM200.59 30.552V36.096H203.344C204.436 36.096 205.27 35.838 205.846 35.322C206.434 34.794 206.728 34.146 206.728 33.378C206.728 32.442 206.44 31.74 205.864 31.272C205.288 30.792 204.508 30.552 203.524 30.552H200.59ZM227.11 40.902C228.25 40.902 229.198 40.584 229.954 39.948C230.722 39.3 231.136 38.478 231.196 37.482H232.6C232.552 38.886 232 40.032 230.944 40.92C229.888 41.796 228.616 42.234 227.128 42.234C225.292 42.234 223.78 41.646 222.592 40.47C221.404 39.294 220.81 37.728 220.81 35.772C220.81 33.732 221.41 32.088 222.61 30.84C223.822 29.58 225.334 28.95 227.146 28.95C228.622 28.95 229.852 29.328 230.836 30.084C231.82 30.84 232.36 31.842 232.456 33.09H231.124C231.004 32.298 230.59 31.638 229.882 31.11C229.186 30.582 228.268 30.318 227.128 30.318C225.808 30.318 224.674 30.81 223.726 31.794C222.778 32.778 222.304 34.056 222.304 35.628C222.304 37.224 222.76 38.502 223.672 39.462C224.584 40.422 225.73 40.902 227.11 40.902ZM254.051 42H245.933V29.22H254.015V30.552H247.445V34.638H253.709V35.916H247.445V40.668H254.051V42Z" fill="white"/>
</svg>
