<svg width="213" height="44" viewBox="0 0 213 44" fill="none" xmlns="http://www.w3.org/2000/svg">
<path d="M43.44 3.22996C43.44 4.57201 42.352 5.65996 41.01 5.65996H7.55997C6.91997 5.65996 6.35997 5.89996 5.87997 6.37996C5.43997 6.81996 5.21997 7.35996 5.21997 7.99996V36.8C5.21997 37.44 5.43997 38 5.87997 38.48C6.35997 38.92 6.91997 39.14 7.55997 39.14H41.01C42.352 39.14 43.44 40.2279 43.44 41.57C43.44 42.912 42.352 44 41.01 44H7.55997C5.55997 44 3.85997 43.3 2.45997 41.9C1.05997 40.5 0.35997 38.8 0.35997 36.8V7.99996C0.35997 5.99996 1.05997 4.29996 2.45997 2.89996C3.85997 1.49996 5.55997 0.799957 7.55997 0.799957H41.01C42.352 0.799957 43.44 1.8879 43.44 3.22996Z" fill="white"/>
<path d="M30.0126 30.34C31.3547 30.34 32.44 31.4279 32.44 32.77C32.44 34.112 31.352 35.2 30.01 35.2H11.99C10.6479 35.2 9.55997 34.112 9.55997 32.77C9.55997 31.4279 10.6408 30.34 11.9828 30.34C16.1981 30.34 24.9172 30.34 30.0126 30.34Z" fill="white"/>
<path d="M64.4572 31.902C65.5972 31.902 66.5452 31.584 67.3012 30.948C68.0692 30.3 68.4832 29.478 68.5432 28.482H69.9472C69.8992 29.886 69.3472 31.032 68.2912 31.92C67.2352 32.796 65.9632 33.234 64.4752 33.234C62.6392 33.234 61.1272 32.646 59.9392 31.47C58.7512 30.294 58.1572 28.728 58.1572 26.772C58.1572 24.732 58.7572 23.088 59.9572 21.84C61.1692 20.58 62.6812 19.95 64.4932 19.95C65.9692 19.95 67.1992 20.328 68.1832 21.084C69.1672 21.84 69.7072 22.842 69.8032 24.09H68.4712C68.3512 23.298 67.9372 22.638 67.2292 22.11C66.5332 21.582 65.6152 21.318 64.4752 21.318C63.1552 21.318 62.0212 21.81 61.0732 22.794C60.1252 23.778 59.6512 25.056 59.6512 26.628C59.6512 28.224 60.1072 29.502 61.0192 30.462C61.9312 31.422 63.0772 31.902 64.4572 31.902ZM89.3649 33.252C87.5169 33.252 85.9809 32.622 84.7569 31.362C83.5329 30.102 82.9209 28.506 82.9209 26.574C82.9209 24.678 83.5389 23.106 84.7749 21.858C86.0109 20.598 87.5409 19.968 89.3649 19.968C91.1889 19.968 92.7189 20.598 93.9549 21.858C95.1909 23.106 95.8089 24.678 95.8089 26.574C95.8089 28.506 95.1969 30.102 93.9729 31.362C92.7609 32.622 91.2249 33.252 89.3649 33.252ZM92.8749 22.83C91.9389 21.822 90.7689 21.318 89.3649 21.318C87.9609 21.318 86.7909 21.822 85.8549 22.83C84.9189 23.826 84.4509 25.074 84.4509 26.574C84.4509 28.11 84.9189 29.382 85.8549 30.39C86.7909 31.398 87.9669 31.902 89.3829 31.902C90.7749 31.902 91.9389 31.398 92.8749 30.39C93.8109 29.382 94.2789 28.116 94.2789 26.592C94.2789 25.092 93.8109 23.838 92.8749 22.83ZM115.362 28.806H114.822L110.646 22.776V33H109.152V20.22H110.664L115.092 26.754L119.61 20.22H121.032V33H119.52V22.776L115.362 28.806ZM142.842 33H134.724V20.22H142.806V21.552H136.236V25.638H142.5V26.916H136.236V31.668H142.842V33ZM163.692 33L160.956 28.392C160.86 28.404 160.722 28.41 160.542 28.41H157.59V33H156.06V20.22H160.794C161.562 20.22 162.27 20.364 162.918 20.652C163.578 20.928 164.13 21.39 164.574 22.038C165.03 22.686 165.258 23.466 165.258 24.378C165.258 25.182 165.012 25.932 164.52 26.628C164.028 27.324 163.326 27.828 162.414 28.14L165.366 33H163.692ZM157.59 21.552V27.096H160.344C161.436 27.096 162.27 26.838 162.846 26.322C163.434 25.794 163.728 25.146 163.728 24.378C163.728 23.442 163.44 22.74 162.864 22.272C162.288 21.792 161.508 21.552 160.524 21.552H157.59ZM184.11 31.902C185.25 31.902 186.198 31.584 186.954 30.948C187.722 30.3 188.136 29.478 188.196 28.482H189.6C189.552 29.886 189 31.032 187.944 31.92C186.888 32.796 185.616 33.234 184.128 33.234C182.292 33.234 180.78 32.646 179.592 31.47C178.404 30.294 177.81 28.728 177.81 26.772C177.81 24.732 178.41 23.088 179.61 21.84C180.822 20.58 182.334 19.95 184.146 19.95C185.622 19.95 186.852 20.328 187.836 21.084C188.82 21.84 189.36 22.842 189.456 24.09H188.124C188.004 23.298 187.59 22.638 186.882 22.11C186.186 21.582 185.268 21.318 184.128 21.318C182.808 21.318 181.674 21.81 180.726 22.794C179.778 23.778 179.304 25.056 179.304 26.628C179.304 28.224 179.76 29.502 180.672 30.462C181.584 31.422 182.73 31.902 184.11 31.902ZM211.051 33H202.933V20.22H211.015V21.552H204.445V25.638H210.709V26.916H204.445V31.668H211.051V33Z" fill="white"/>
</svg>
