<svg width="344" height="696" viewBox="0 0 344 696" fill="none" xmlns="http://www.w3.org/2000/svg">
<path fill-rule="evenodd" clip-rule="evenodd" d="M293.032 14.6526H262.343C260.712 14.6526 259.244 15.2864 258.209 16.4296C257.129 17.6225 256.631 19.2279 256.808 20.9523C257.276 25.5275 255.913 29.8261 252.967 33.0562C249.318 37.064 243.647 39.1759 236.558 39.0846H105.97C98.8257 39.1593 93.2157 37.064 89.5662 33.0534C86.6228 29.8205 85.2577 25.5192 85.7312 20.9384C85.9084 19.2196 85.4127 17.6197 84.3384 16.4296C83.3028 15.2864 81.838 14.6526 80.207 14.6526H50.8391C31.0353 14.6526 16.1021 28.5639 16.1021 47.0145V652.616H16.1104C16.5258 669.854 31.5365 684.278 49.2635 684.278H293.106C311.171 684.278 326.431 669.987 326.431 653.073L326.434 48.0414C326.434 29.6323 311.448 14.6526 293.032 14.6526Z" fill="white"/>
<path fill-rule="evenodd" clip-rule="evenodd" d="M333.146 651.177C333.146 673.132 315.329 690.993 293.431 690.993H49.4065C27.3397 690.993 9.39026 672.997 9.39026 650.875V48.039C9.39026 25.9256 27.3314 7.93756 49.3844 7.93756H291.967C314.675 7.93756 333.146 26.46 333.146 49.2239V651.177ZM291.967 5.86102H49.3844C26.1882 5.86102 7.31915 24.7821 7.31915 48.0389V650.875C7.31915 674.14 26.1992 693.069 49.4065 693.069H293.431C316.472 693.069 335.217 674.276 335.217 651.177V49.2239C335.217 25.3137 315.815 5.86102 291.967 5.86102Z" fill="white"/>
<path fill-rule="evenodd" clip-rule="evenodd" d="M150.389 20.967H192.15C193.202 20.967 194.055 21.7497 194.055 22.7116C194.055 23.6734 193.202 24.4562 192.15 24.4562H150.389C149.337 24.4562 148.481 23.6734 148.481 22.7116C148.481 21.7497 149.337 20.967 150.389 20.967ZM150.389 26.3747H192.15C194.357 26.3747 196.153 24.7324 196.153 22.7116C196.153 20.6932 194.357 19.0484 192.15 19.0484H150.389C148.179 19.0484 146.383 20.6932 146.383 22.7116C146.383 24.7324 148.179 26.3747 150.389 26.3747Z" fill="white"/>
<path fill-rule="evenodd" clip-rule="evenodd" d="M210.058 18.2759C212.504 18.2759 214.491 20.2671 214.491 22.713C214.491 25.1588 212.504 27.1471 210.058 27.1471C207.615 27.1471 205.628 25.1588 205.628 22.713C205.628 20.2671 207.615 18.2759 210.058 18.2759ZM210.058 29.3052C213.692 29.3052 216.647 26.3501 216.647 22.713C216.647 19.0759 213.692 16.1179 210.058 16.1179C206.425 16.1179 203.472 19.0759 203.472 22.713C203.472 26.3501 206.425 29.3052 210.058 29.3052Z" fill="white"/>
<mask id="mask0" mask-type="alpha" maskUnits="userSpaceOnUse" x="0" y="0" width="344" height="696">
<path fill-rule="evenodd" clip-rule="evenodd" d="M0.00109863 0.742249H343.576V695.999H0.00109863V0.742249Z" fill="white"/>
</mask>
<g mask="url(#mask0)">
<path fill-rule="evenodd" clip-rule="evenodd" d="M341.505 235.777C341.505 236.153 341.19 236.469 340.814 236.469H339.73V159.274H340.814C341.19 159.274 341.505 159.593 341.505 159.966V235.777ZM337.657 650.434C337.657 674.413 318.179 693.923 294.234 693.923H49.7037C25.5931 693.923 5.979 674.281 5.979 650.135V46.5868C5.979 22.4523 25.5848 2.81805 49.6843 2.81805H292.766C317.518 2.81805 337.657 22.9837 337.657 47.7714V650.434ZM2.78966 254.066C2.41655 254.066 2.09873 253.751 2.09873 253.374V207.795C2.09873 207.419 2.41655 207.103 2.78966 207.103H3.90619V254.066H2.78966ZM2.78966 189.086C2.41655 189.086 2.09873 188.77 2.09873 188.394V142.812C2.09873 142.436 2.41655 142.12 2.78966 142.12H3.90619V189.086H2.78966ZM2.76483 115.01C2.38896 115.01 2.0739 114.692 2.0739 114.318V90.9616C2.0739 90.5852 2.38896 90.2697 2.76483 90.2697H3.90624V115.01H2.76483ZM340.814 157.199H339.73V47.7713C339.73 21.8406 318.662 0.742249 292.766 0.742249H49.6843C24.4406 0.742249 3.90622 21.3064 3.90622 46.5868V88.1939H2.76481C1.23924 88.1939 0.00109863 89.4366 0.00109863 90.9616V114.318C0.00109863 115.843 1.23924 117.086 2.76481 117.086H3.90622V140.044H2.78968C1.26688 140.044 0.025972 141.287 0.025972 142.812V188.394C0.025972 189.921 1.26688 191.161 2.78968 191.161H3.90622V205.028H2.78968C1.26688 205.028 0.025972 206.268 0.025972 207.795V253.374C0.025972 254.902 1.26688 256.142 2.78968 256.142H3.90622V650.135C3.90622 675.426 24.4516 695.999 49.7037 695.999H294.234C319.323 695.999 339.73 675.559 339.73 650.434V238.545H340.814C342.336 238.545 343.577 237.302 343.577 235.777V159.966C343.577 158.441 342.336 157.199 340.814 157.199Z" fill="white"/>
</g>
<path fill-rule="evenodd" clip-rule="evenodd" d="M263.771 13C262.137 13 260.666 13.6351 259.628 14.7806C258.546 15.976 258.046 17.5847 258.224 19.3126C258.693 23.8973 257.328 28.2046 254.375 31.4414C250.718 35.4575 245.034 37.5737 237.931 37.4821H107.061C99.9017 37.557 94.2796 35.4575 90.6223 31.4386C87.6725 28.1991 86.3044 23.889 86.7789 19.2987C86.9565 17.5764 86.4598 15.9732 85.3831 14.7806C84.3453 13.6351 82.8774 13 81.2429 13H51.8118C31.9653 13 17 26.9399 17 45.4284V652.273H17.0083C17.4246 669.547 32.4676 684 50.2328 684H294.601C312.704 684 327.997 669.68 327.997 652.731L328 46.4574C328 28.0105 312.982 13 294.526 13H263.771Z" fill="url(#paint0_linear)"/>
<mask id="mask1" mask-type="alpha" maskUnits="userSpaceOnUse" x="17" y="13" width="311" height="671">
<path fill-rule="evenodd" clip-rule="evenodd" d="M263.771 13C262.137 13 260.666 13.6351 259.628 14.7806C258.546 15.976 258.046 17.5847 258.224 19.3126C258.693 23.8973 257.328 28.2046 254.375 31.4414C250.718 35.4575 245.034 37.5737 237.931 37.4821H107.061C99.9017 37.557 94.2796 35.4575 90.6223 31.4386C87.6725 28.1991 86.3044 23.889 86.7789 19.2987C86.9565 17.5764 86.4598 15.9732 85.3831 14.7806C84.3453 13.6351 82.8774 13 81.2429 13H51.8118C31.9653 13 17 26.9399 17 45.4284V652.273H17.0083C17.4246 669.547 32.4676 684 50.2328 684H294.601C312.704 684 327.997 669.68 327.997 652.731L328 46.4574C328 28.0105 312.982 13 294.526 13H263.771Z" fill="white"/>
</mask>
<g mask="url(#mask1)">
<path fill-rule="evenodd" clip-rule="evenodd" d="M587.897 204.146L568.798 250.341L552.854 243.3L573.707 197.598L587.897 204.146ZM585.205 276.263L571.395 278.177L570.376 251.806L593.737 262.057L585.205 276.263ZM572.563 297.223L571.836 279.855L584.977 278.177L572.563 297.223ZM571.836 330.919L554.315 330.318L570.755 304.548L571.836 330.919ZM573.892 344.105L573.296 336.779L584.977 337.154L573.892 344.105ZM574.756 378.176L558.17 379.266L557.235 363.291L572.819 352.895L574.756 378.176ZM579.136 431.128L561.651 432.009L558.695 380.38L575.249 379.266L579.136 431.128ZM580.596 466.211L564.097 480.356L561.615 434.364L578.285 433.474L580.596 466.211ZM549.937 493.541H546.086L542.634 436.244L560.531 434.939L563.075 481.917L549.937 493.541ZM528.683 524.275L528.566 524.353L506.282 553.609L485.69 536.958L515.062 499.402L535.333 519.762L528.683 524.275ZM554.315 538.851L529.864 572.655L507.592 554.078L529.386 524.565L536.035 519.913L554.315 538.851ZM569.586 610.747L542.634 556.687L555.588 538.958L592.277 608.427L569.586 610.747ZM540.951 580.47L532.413 573.205L542.153 559.469L567.455 611.76L549.25 613.677L540.951 580.47ZM511.751 618.072L509.052 604.639L530.571 574.12L538.761 581.128L547.014 614.337L511.751 618.072ZM514.552 631.258L511.972 619.232L523.653 618.072L514.552 631.258ZM522.192 675.21L498.831 659.07L514.149 635.653L522.192 675.21ZM487.766 670.814L471.089 656.771L478.665 645.908L495.911 658.087L487.766 670.814ZM446.268 636.832L455.816 623.731L495.911 619.537L469.76 656.164L446.268 636.832ZM415.924 676.675L393.704 659.399L420.491 623.932L441.887 641.379L415.924 676.675ZM376.183 644.565L403.156 609.282L415.606 619.487L389.152 654.699L376.183 644.565ZM348.956 675.21L342.601 657.396L360.287 634.188L374.723 646.035L348.956 675.21ZM313.785 663.489L306.099 644.632L330.627 635.653L338.221 655.335L313.785 663.489ZM288.577 651.68L304.086 645.908L311.939 665.501L296.279 670.814L288.577 651.68ZM268.136 679.605L274.839 656.33L286.941 651.769L294.418 670.575L268.136 679.605ZM244.775 675.207L251.409 651.769L269.596 656.853L262.892 679.605L244.775 675.207ZM234.554 645.502L241.894 582.006L244.677 579.98L268.136 588.617L251.209 650.303L234.554 645.502ZM225.776 669.349L208.272 664.651L215.198 641.513L231.634 646.126L225.776 669.349ZM189.291 658.951L194.788 635.653L212.653 640.741L205.944 663.489L189.291 658.951ZM171.77 654.672L177.962 631.258L193.671 635.702L188.115 659.094L171.77 654.672ZM146.948 664.355L154.955 634.603H169.657L173.308 631.258L174.69 631.318L164.909 669.349L146.948 664.355ZM125.047 664.954L132.925 634.188H152.789L144.889 663.069L125.047 664.954ZM142.848 550.679L163.009 556.718L140.29 628.328H119.207L142.848 550.679ZM98.7917 688.395L78.3239 678.875L98.539 634.188H114.826L98.7917 688.395ZM33.061 659.267L37.3037 649.631L60.885 660.793L61.604 659.247L37.9917 648.071L48.6202 623.932L94.385 630.135L73.6008 675.21L33.061 659.267ZM15.5463 618.072L46.2018 622.297L30.8976 657.629L-3.44135 638.059L15.5463 618.072ZM-18.0422 629.629L-5.53696 616.607L15.5399 619.528L-2.43768 638.583L-18.0422 629.629ZM-54.0163 596.096L-20.9625 610.376L-25.7156 625.397L-60.385 613.522L-54.0163 596.096ZM-46.6092 577.05L-13.662 590.455L-19.7803 610.747L-53.0845 595.642L-46.6092 577.05ZM-39.6262 559.469L-7.82162 570.74L-13.538 588.771L-45.7841 576.289L-39.6262 559.469ZM-33.8293 540.424L-1.98123 552.18L-7.16678 568.26L-39.9437 556.841L-33.8293 540.424ZM-27.3344 524.308L3.85916 535.013L-1.10205 550.679L-32.6432 538.823L-27.3344 524.308ZM-20.8654 506.727L9.69955 516.758L4.41165 533.098L-26.8028 522.614L-20.8654 506.727ZM-13.7019 489.146L17 498.88L10.9107 514.052L-19.5023 504.306L-13.7019 489.146ZM-4.50267 461.31L25.7605 474.271L17.0284 497.937L-13.662 487.35L-4.50267 461.31ZM-51.6244 441.181L-37.1291 429.079L-35.9246 429.876L-35.8534 429.923L0.938995 444.807L-4.75035 459.845L-51.6244 441.181ZM-64.7653 434.771L-56.2283 415.893L-38.4836 427.399L-53.0716 439.334L-64.7653 434.771ZM6.77934 388.072L-37.6177 426.148L-56.0047 413.651L-37.3822 370.476L6.77934 388.072ZM-25.7554 342.64L17 360.783L12.3526 372.317L2.29066 380.731L-35.5634 365.541L-25.7554 342.64ZM-45.7841 332.777L-38.187 314.803L-22.4226 322.038L-29.8191 339.71L-45.7841 332.777ZM-56.8934 307.478L-39.9437 314.91L-47.6733 332.384L-64.7653 325.295L-56.8934 307.478ZM-41.9119 272.317L-25.3427 281.272L-38.9596 313.338L-56.0047 305.551L-41.9119 272.317ZM-54.5446 255.128L-47.0556 238.62L-32.6432 246.854L-42.4094 269.387C-44.5078 267.725 -50.2458 262.762 -54.5446 255.128ZM-60.0944 231.295L-48.7043 237.609L-56.0255 253.271C-59.119 247.289 -61.174 239.88 -60.0944 231.295ZM-55.9346 219.764C-53.3305 213.329 -50.906 207.392 -48.6861 201.993L-35.5634 208.054L-47.8819 237.155L-58.9249 230.393C-58.3916 227.014 -57.4328 223.466 -55.9346 219.764ZM-34.5462 168.297L-20.9624 174.66L-35.0883 206.389L-48.7042 200.41C-41.0244 182.678 -35.8823 171.25 -34.5462 168.297ZM-0.348572 134.6L12.6197 140.782L-4.41193 181.482L-18.0422 174.992L-0.348572 134.6ZM-37.9292 70.1375L22.8404 98.0348L0.309723 130.205L-57.4648 103.573L-37.9292 70.1375ZM-29.1938 55.4869L33.061 82.6664L23.3453 96.5087L-37.0235 68.855L-29.1938 55.4869ZM79.475 20.3253L87.0845 23.9725L57.6641 90.6485L35.9812 81.3284L79.475 20.3253ZM152.789 54.2172V61.3472L148.695 56.2325L142.568 58.5526L143.706 52.5568L148.629 54.5197L152.789 54.2172ZM145.685 128.74L129.427 121.748L154.084 65.0102L155.017 64.6025L155.238 63.7651V53.2857L179.07 51.0917L145.685 128.74ZM141.108 181.22L123.274 222.504L111.906 217.71L127.808 177.087L141.108 181.22ZM206.812 82.0042L196.659 106.861L188.679 111.159L181.991 107.347L195.44 75.9978L206.812 82.0042ZM195.564 150.716L181.991 144.583L189.44 127.109L187.566 122.111L193.082 109.327L197.921 106.8L208.427 81.858L221.413 88.5116L195.564 150.716ZM272.516 35.7936L256.827 74.5327L234.554 64.7865L251.256 24.7205L272.516 35.7936ZM300.258 49.1253L280.483 86.2533L272.689 80.1636L272.182 80.8223L272.504 80.0532L259.376 74.4674L275.214 36.441L300.258 49.1253ZM319.12 21.7903C328.187 26.5809 337.545 31.9318 342.601 35.9424L329.766 62.8122L304.638 49.7336L319.12 21.7903ZM349.154 46.152C352.845 56.0087 358.754 71.7306 387.008 69.9547C387.134 71.8878 387.415 73.7436 387.886 75.4862C391.03 87.1386 398.938 108.778 405.385 125.81L316.319 94.708L330.691 65.6145L331.56 66.0523L332.314 64.5481L331.437 64.1065L344.379 37.9061C345.22 38.6291 345.88 39.2962 346.314 39.8895C347.327 41.2738 348.176 43.5341 349.154 46.152ZM399.433 68.3208C416.866 64.9406 427.697 64.8829 431.629 68.1529C433.535 69.7401 433.639 72.0155 433.583 75.5774C433.554 77.4308 433.522 79.3459 434.054 81.0611C435.704 86.3898 449.924 100.512 460.869 110.452L453.705 120.236L418.595 144.856C414.066 133.371 397.727 91.548 392.984 74.1119C392.589 72.6589 392.352 71.1011 392.244 69.4664C394.512 69.1873 396.902 68.8112 399.433 68.3208ZM479.882 68.6725L485.69 88.4401C478.26 91.2189 472.469 95.0932 472.095 95.3455L471.703 95.6118L464.029 106.764C458.685 101.548 452.546 95.2676 447.728 89.8568C451.588 85.5474 462.549 74.7273 479.882 68.6725ZM498.058 65.7523C504.486 65.1762 511.168 63.5744 517.789 61.3472L519.272 84.6346C513.251 85.2614 506.604 85.5862 499.302 85.5862C495.226 85.5862 491.022 86.4834 487.163 87.7183L481.31 69.02C486.722 67.3681 492.35 66.2643 498.058 65.7523ZM549.934 76.0111C543.294 80.3696 533.541 83.3028 520.797 84.7882L519.272 60.735C524.676 58.8201 530.021 56.5094 535.137 54.0218L549.934 76.0111ZM574.601 86.2533L557.235 78.1816L558.928 74.1835C569.729 65.2779 585.37 51.3073 593.737 43.7664L574.601 86.2533ZM593.737 97.9113L574.178 141.926L558.695 134.455L578.252 90.6484L593.737 97.9113ZM582.056 148.371L563.816 191.738L555.775 188.047L574.824 144.856L582.056 148.371ZM551.255 242.741L551.115 242.681L532.413 241.982L556.011 190.273L573.296 197.942L551.903 243.015L551.255 242.741ZM552.922 282.036L569.593 279.642L570.376 300.684L552.854 330.919L552.922 282.036ZM538.498 380.731L538.254 376.901L556.379 364.616L557.235 379.479L538.498 380.731ZM538.254 382.023L557.224 380.731L560.155 432.523L541.494 433.474L538.254 382.023ZM517.063 434.939L516.352 391.784L529.183 382.619L529.19 382.716L536.575 382.196L539.714 433.744L517.063 434.939ZM517.812 437.224L540.606 436.404L544.094 493.541H518.74L517.812 437.224ZM491.531 493.541V408.514L510.803 395.382L511.972 493.541H491.531ZM471.089 522.678L490.66 496.472H509.052L482.562 533.098L471.089 522.678ZM460.92 562.4L449.188 552.557L469.981 524.308L481.31 534.211L460.92 562.4ZM484.352 581.445L463.789 564.502L484.762 536.028L504.671 553.121L484.352 581.445ZM507.61 599.596L485.69 582.643L506.759 555.074L529.493 573.395L508.112 601.956L507.61 599.596ZM463.333 566.795L484.23 583.425L444.348 637.118L422.906 619.803L463.333 566.795ZM433.215 574.12L440.427 590.797L420.858 616.607L408.305 606.412L433.215 574.12ZM390.784 592.155L422.21 552.144L430.207 570.548L404.723 603.421L390.784 592.155ZM389.455 597.561L403.925 608.954L375.676 644.443L360.122 632.77L389.455 597.561ZM344.061 621.281L373.887 585.841L387.864 597.119L358.931 632.723L344.061 621.281ZM344.401 621.002L358.662 632.458L341.35 654.699L333.84 634.1L344.401 621.002ZM281.08 637.118L287.117 650.748L275.437 654.699L281.08 637.118ZM261.096 615.142L278.357 623.043L269.682 654.699L252.075 649.406L261.096 615.142ZM269.581 588.771L288.577 593.357L280.047 623.932L262.296 615.953L269.581 588.771ZM271.056 560.934L268.772 585.841L246.235 578.002L271.056 560.934ZM235.985 607.817L225.793 605.342L228.154 594.024L236.652 590.585L238.934 582.91L235.985 607.817ZM175.325 518.448L192.211 524.197L181.498 560.935L164.469 555.594L175.325 518.448ZM150.199 522.843L170.31 528.371L162.318 553.609L142.568 547.891L150.199 522.843ZM123.587 541.188L126.972 528.654L138.648 487.681L157.169 492.235L140.938 546.284L123.587 541.188ZM122.474 544.819L139.648 550.139L116.418 628.327H100.225L122.474 544.819ZM90.9708 527.238L117.746 541.529L103.858 592.976L87.1355 589.432L86.7912 591.085L103.418 594.609L94.3151 628.327L49.1221 622.204L90.9708 527.238ZM35.3861 599.026L50.5822 613.173L47.2198 621.002L18.4601 617.006L35.3861 599.026ZM21.9514 587.306L34.5211 598.371L16.3671 616.607L-4.90143 613.811L21.9514 587.306ZM-12.2019 615.152L-18.0422 621.002L-15.6812 613.677L-12.2019 615.152ZM5.31924 596.791L-10.8767 612.212L-15.1221 610.501L-8.74879 591.701L5.31924 596.791ZM21.3803 580.887L6.31119 596.096L-7.82159 590.677L-2.05806 572.655L21.3803 580.887ZM35.9812 567.174L23.6886 579.98L-0.521118 571.205L4.478 555.074L35.9812 567.174ZM41.8216 547.442L35.9928 563.865L3.85913 551.701L8.78683 536.028L41.8216 547.442ZM49.1221 529.794L43.1716 546.284L9.69952 534.906L14.9605 518.448L49.1221 529.794ZM54.9624 511.719L49.2941 527.238L15.5399 516.163L21.5362 500.867L54.9624 511.719ZM63.723 489.953L56.522 511.122L22.8404 499.381L31.3917 475.961L63.723 489.953ZM37.3274 459.845L69.5634 473.082L64.2431 487.681L31.601 474.49L37.3274 459.845ZM33.061 458.034L27.2693 473.031L-3.44135 460.464L2.18135 445.194L33.061 458.034ZM8.55739 427.614L38.9014 440.253L32.4813 456.915L2.39905 444.379L8.55739 427.614ZM-21.4208 415.893L6.77933 427.091L0.370239 443.729L-36.2744 429.172L-37.0235 428.684L-21.4208 415.893ZM-3.87932 399.777L14.0798 407.282L8.29855 423.218L-18.0422 412.109L-3.87932 399.777ZM19.9202 392.189L15.0898 405.638L-1.9812 398.429L9.81055 388.057L19.9202 392.189ZM24.8815 364.616L35.9812 377.512L23.136 389.522L3.85913 381.911L24.8815 364.616ZM26.4237 342.64L40.3615 348.744L15.5399 369.011L26.4237 342.64ZM24.3005 342.775L17.3958 360.221L-25.3427 341.756L-17.7032 323.594L24.3005 342.775ZM-9.31507 307.848L1.52988 313.54L2.24261 312.004L-8.67361 306.276L-2.59422 291.362L18.4601 303.324L6.72438 332.384L-15.1221 322.092L-9.31507 307.848ZM-9.28171 289.551L-22.3302 320.664L-38.4836 313.265L-24.8633 281.107L-9.28171 289.551ZM-14.3341 257.666L0.938965 266.124L-8.30608 286.967L-23.8826 278.986L-14.3341 257.666ZM-15.1221 256.584L-24.7229 278.177L-41.4037 269.567L-31.5665 247.41L-15.1221 256.584ZM-17.963 215.179L-0.521133 222.894L-14.6084 256.201L-31.1831 246.482L-17.963 215.179ZM-19.5024 215.684L-32.6725 245.945L-47.2441 237.654L-34.3353 209.319L-19.5024 215.684ZM-19.5935 213.714L-34.1033 207.256L-20.2061 175.622L-6.36148 182.194L-19.5935 213.714ZM14.0798 191.094L0.818237 222.504L-16.5822 214.793L-3.15822 182.948L14.0798 191.094ZM31.601 149.859L14.6544 190.273L-1.9812 182.356L14.9484 141.926L31.601 149.859ZM75.4037 99.5693L52.8406 152.181L35.9812 144.358L58.4762 92.1135L75.4037 99.5693ZM75.4861 97.9738L57.8826 90.5343L87.4182 24.7205L104.606 32.8209L75.4861 97.9738ZM92.6073 106.764L76.8638 100.108L105.964 34.976L122.127 42.5958L92.6073 106.764ZM140.979 59.484L132.398 64.5988L110.793 114.089L94.3849 107.021L123.601 42.3013L142.568 51.4144L140.979 59.484ZM108.268 166.832L92.9249 160.177L111.377 115.555L126.507 122.437L108.268 166.832ZM107.688 216.644H87.0845L127.71 124.345L144.028 131.472L107.688 216.644ZM105.123 267.921L91.4648 261.632L109.053 221.039L120.667 225.788L105.123 267.921ZM144.827 185.878L174.69 199.109L157.251 240.085L126.507 226.312L144.827 185.878ZM211.186 160.297L205.022 177.068L212.653 180.091L202.487 204.924L179.07 194.446L196.261 153.646L211.186 160.297ZM222.426 89.1834L234.554 94.0124L211.351 158.041L196.592 151.37L222.426 89.1834ZM246.106 96.5087L222.873 87.6108L232.317 65.7423L254.995 75.3224L246.106 96.5087ZM286.002 84.7882L313.399 95.6192L302.616 118.485L273.977 108.299L286.002 84.7882ZM300.332 89.1834L287.117 84.1649L303.955 52.5568L317.779 59.559L300.332 89.1834ZM329.46 65.1687L315 95.0437L301.718 89.929L319.168 59.8821L329.46 65.1687ZM339.683 130.205L319.962 123.393L323.742 110.948L322.124 110.437L318.355 122.839L304.638 118.102L315.834 95.0436L351.361 107.667L339.683 130.205ZM364.406 138.996L342.601 131.369L353.692 109.694L374.723 117.261L364.406 138.996ZM382.406 119.154L383.484 144.856L365.962 138.794L376.41 117.02L382.406 119.154ZM410.188 192.326L368.974 197.598L364.502 193.226L385.3 172.432L415.606 153.646L410.188 192.326ZM438.934 137.531L441.887 156.506L418.526 159.507L419.806 150.703L438.934 137.531ZM456.015 124.345L460.869 152.753L443.331 155.111L440.427 135.586L456.015 124.345ZM472.48 119.489C473.915 121.749 477.836 133.553 482.77 149.548L463.171 152.181L457.948 121.645L464.375 112.624C468.129 116.022 471.131 118.564 472.48 119.489ZM503.211 144.868L488.468 149.251C478.742 117.041 477.329 116.198 476.152 115.498C475.109 114.876 472.066 112.229 468.169 108.592L475.545 98.0358C476.892 97.1843 481.671 94.2803 487.468 92.1135L503.211 144.868ZM507.351 90.6484L517.812 116.269L505.163 144.74L504.756 144.856L488.61 92.692C492.07 91.5645 495.799 90.748 499.34 90.748C501.301 90.748 504.068 90.7467 507.351 90.6484ZM538.254 124.023L557.227 80.393L574.756 88.3221L554.687 131.67L538.254 124.023ZM534.532 178.552L519.272 171.707L538.199 127.275L554.315 134.93L534.532 178.552ZM538.254 180.137L557.807 136.065L573.296 143.585L553.97 187.343L538.254 180.137ZM513.519 240.923L513.432 235.499L537.232 181.483L552.854 188.694L529.678 241.55L513.519 240.923ZM533.353 285.502L532.413 243.015L550.682 243.739L551.394 244.059L551.34 282.952L533.353 285.502ZM533.411 330.303L532.413 285.069L549.934 282.572L549.867 330.919L533.411 330.303ZM532.413 335.314L549.934 335.901L535.976 357.29L532.413 335.314ZM491.531 333.849L509.385 334.521L510.512 388.96L491.531 402.707V333.849ZM479.149 409.875L470.406 410.033L469.629 340.094L488.437 332.384L488.78 332.669L489.71 333.179L490.07 333.182V402.613L479.149 409.875ZM488.61 431.699H480.68V453.47L488.61 453.199V492.076H470.01L469.629 422.48L488.61 408.568V431.699ZM490.07 452.309L484.23 452.52V434.939H490.07V452.309ZM471.089 497.937H488.61L471.089 519.913V497.937ZM417.066 531.881L429.3 497.937H446.268L445.796 522.706L424.853 550.679L417.066 531.881ZM328 607.764L357.714 571.19L373.263 583.774L343.254 619.537L328 607.764ZM325.783 609.282L341.141 620.792L330.832 632.723L322.16 610.521L325.783 609.282ZM293.539 593.166L313.563 597.525L325.08 606.68L285.657 621.002L293.539 593.166ZM304.638 536.028L288.678 591.701L269.596 587.222L271.986 559.7L304.638 536.028ZM249.881 541.627L250.232 540.424L272.516 547.938L271.023 553.072L243.315 574.12L249.881 541.627ZM211.193 596.096L215.424 571.19L237.474 577.551L211.193 596.096ZM214.837 616.607L205.352 607.158L213.273 601.956L221.413 609.893L214.837 616.607ZM180.527 604.886L186.371 613.326L172.255 623.932L167.39 613.641L180.527 604.886ZM182.285 582.91L209.732 588.883L208.282 597.48L187.565 612.212L177.61 598.609L182.285 582.91ZM214.113 569.841L211.217 587.306L183.451 581.159L188.944 562.4L214.113 569.841ZM208.272 529.079L197.73 565.33L183.451 560.878L194.176 524.308L208.272 529.079ZM203.048 496.472L217.033 501.161L209.206 527.238L195.131 522.621L203.048 496.472ZM184.117 490.611L200.972 496.078L193.054 521.378L176.15 516.013L184.117 490.611ZM147.218 455.45L165.93 461.587L156.858 492.076L138.188 487.443L147.218 455.45ZM111.906 480.888L121.827 458.389L139.189 452.139L144.028 449.589L133.585 486.216L111.906 480.888ZM129.486 503.797L106.066 497.03L112.12 483.286L133.808 488.622L129.486 503.797ZM125.035 519.913L98.7653 513.126L105.562 497.937L129.427 504.728L125.035 519.913ZM75.4037 517.186L84.9333 499.402L100.225 505.719L91.4252 525.773L75.4037 517.186ZM79.0361 554.457L62.195 571.19L46.2018 563.155L46.5984 562.769L74.0619 518.448L91.4648 527.367L79.0361 554.457ZM68.0727 575.585L62.2629 572.641L75.4037 559.469L68.0727 575.585ZM47.662 550.44L42.0892 559.326L38.9014 562.4L43.8842 549.214L47.662 550.44ZM57.8826 532.583L48.7852 547.749L44.7418 546.376L50.5996 530.168L57.8826 532.583ZM68.1033 516.276L59.4875 531.633L52.0422 528.993L57.5883 512.587L68.1033 516.276ZM78.3239 496.18L68.8044 514.052L57.8826 510.401L64.9055 490.611L78.3239 496.18ZM87.0845 479.759L79.4989 493.541L65.1831 487.792L70.5934 473.031L87.0845 479.759ZM78.5642 455.45L97.3052 463.168L88.7366 478.891L72.4836 472.193L78.5642 455.45ZM75.4037 455.049L69.3187 471.565L37.4413 458.62L43.9065 442.264L75.4037 455.049ZM50.9575 424.683L82.7042 437.7L76.8189 453.985L44.7418 440.712L50.9575 424.683ZM46.2019 422.456L40.14 437.869L9.69952 425.448L15.4809 410.033L46.2019 422.456ZM37.9284 377.801L59.3427 387.785L54.3661 401.242L25.7606 389.566L37.9284 377.801ZM88.5446 311.873L66.4465 369.506L52.549 364.065L63.0176 354.299L61.856 353.071L36.913 376.336L25.7606 363.409L88.5446 311.873ZM38.7598 313.502L58.6124 288.432L75.4037 294.985L65.4222 317.317L65.3549 317.47L64.9955 329.694L42.2598 348.5L27.2206 341.827L38.7598 313.502ZM35.9812 313.509L25.2257 341.175L8.23944 333.278L19.9983 304.548L35.9812 313.509ZM19.9772 273.782L36.4977 280.262L25.1566 305.767L26.7094 306.467L38.0842 280.885L54.9624 287.509L35.7746 311.873L9.69952 297.845L19.9772 273.782ZM7.00572 269.386L19.9202 274.517L10.3401 297.223L-1.9812 290.513L7.00572 269.386ZM17 229.62L2.68867 264.991L-12.2019 255.953L1.46402 222.504L17 229.62ZM31.6009 199.123L18.5534 229.83L2.39905 222.787L15.7211 191.738L31.6009 199.123ZM32.271 197.598L17 190.247L33.9934 149.251L49.1221 156.543L32.271 197.598ZM51.8498 163.902L57.8826 185.587L35.863 237.155L22.8404 231.309L51.8498 163.902ZM56.4656 146.321L71.0235 152.524L60.3354 177.087L54.4236 155.327L54.9716 154.024L53.5023 153.332L56.4656 146.321ZM72.4443 150.716L57.8826 144.4L76.5511 99.4388L91.4648 106.223L72.4443 150.716ZM75.4037 150.981L94.5826 106.764L110.446 113.879L91.9212 158.041L75.4037 150.981ZM69.9484 209.319L62.2629 180.554L62.5358 180.068H62.5348L73.6962 153.646L90.0047 160.666L69.9484 209.319ZM87.214 216.644L71.1147 211.992L71.0235 211.652L92.1459 160.972L107.526 167.589L87.214 216.644ZM73.9437 254.414L87.5883 222.504H107.526L90.1384 262.061L73.9437 254.414ZM54.9214 247.41L71.0235 254.67L57.2531 286.967L40.3615 280.307L54.9214 247.41ZM53.7557 245.945L37.4413 238.609L58.6712 188.808L66.4621 216.857L66.6432 216.908L53.7557 245.945ZM84.1643 221.305L70.7338 253.271L54.9625 246.056L67.7916 216.644L84.1643 221.305ZM37.1911 238.62L53.5024 246.139L38.9966 279.642L22.8404 273.13L37.1911 238.62ZM21.4991 231.295L34.5211 237.372L20.1705 272.317L6.77936 266.852L21.4991 231.295ZM73.6747 294.293L57.8826 287.72L71.207 254.736L87.0845 262.292L73.6747 294.293ZM92.8604 301.618L76.8638 295.209L90.6532 263.526L104.606 269.921L92.8604 301.618ZM113.366 274.668L103.566 296.324L97.3052 301.618L108.211 272.317L113.366 274.668ZM105.212 306.013L98.7653 303.501L106.103 297.438L105.893 297.183L116.455 274.381L143.273 234.225L157.169 240.353L105.212 306.013ZM184.148 250.341L160.089 239.541L177.284 199.063L200.972 209.578L184.148 250.341ZM218.493 216.943L203.844 258.96L203.791 259.131L184.911 250.506L201.616 209.319L218.493 216.943ZM221.085 163.902L236.014 170.385L220.896 212.249L203.892 204.834L221.085 163.902ZM218.493 163.91L212.734 178.552L206.812 176.112L212.158 160.972L218.493 163.91ZM226.775 122.88L234.554 126.361L220.611 162.437L214.113 159.369L226.775 122.88ZM267.544 107.612L255.091 133.135L237.474 125.424L248.324 97.9738L268.136 106.441L267.544 107.612ZM269.887 184.413L240.394 171.523L271.374 111.411L272.291 109.694L301.718 119.721L269.887 184.413ZM355.319 155.111L333.84 144.611L340.646 131.67L363.042 139.289L355.319 155.111ZM338.282 209.319L330.92 206.672L355.094 158.042L379.103 169.565L338.282 209.319ZM368.883 232.76L344.061 212.447L362.795 193.203L367.26 197.686L368.883 232.76ZM404.644 219.864L400.045 233.403L372.536 235.69L370.548 234.074L368.883 198.352L408.305 193.203L404.644 219.864ZM429.449 191.738L434.587 231.943L406.845 234.225L410.937 222.308L414.918 193.614L429.449 191.738ZM466.709 184.97L447.714 187.343L443.347 158.96L461.687 156.576L466.709 184.97ZM491.53 181.467L468.629 184.413L463.789 156.234L483.142 153.646C485.744 162.073 488.611 171.608 491.53 181.467ZM510.512 171.689L496.889 180.017C496.608 179.006 496.326 177.993 496.043 176.98C493.146 166.611 490.695 157.99 488.61 150.812L503.21 146.321L510.512 171.689ZM512.147 228.365C509.498 219.101 504.335 201.158 498.831 182.585L516.081 172.692L533.873 180.643L512.147 228.365ZM479.85 239.041L479.944 238.886L480.005 238.782L493.787 187.343C498.653 203.813 503.527 220.68 507.5 234.687L507.591 240.085L479.85 239.041ZM509.052 287.456L491.531 289.897V241.55L508.517 242.201L509.052 287.456ZM491.802 290.885L508.611 288.432L509.052 329.454L491.531 328.787L491.802 328.732V290.885ZM469.629 311.753V294.134L490.07 291.362V327.989L469.629 311.753ZM468.169 317.734L485.69 331.293L468.378 338.245L468.169 317.734ZM450.082 347.035L441.887 303.227L444.525 298.688L466.485 316.759L466.709 339.936L450.082 347.035ZM449.188 411.498L450.403 348.202L467.469 341.175L468.169 411.149L449.188 411.498ZM448.727 439.122L467.521 426.148L468.169 493.541H447.728L448.727 439.122ZM430.514 451.627L447.728 439.334L446.76 493.541H430.207L430.514 451.627ZM406.845 493.542L407.499 467.034L427.286 453.985L426.966 493.542H406.845ZM388.526 496.472H405.385L405.045 509.683L387.864 531.633L388.526 496.472ZM367.031 497.937H386.404L385.716 534.243L365.962 559.469L367.031 497.937ZM346.981 555.899L347.12 555.901L347.608 508.018L363.448 497.937H365.962L364.845 560.987L359.939 566.795L346.981 555.899ZM301.748 566.795L323.62 582.977L313.78 596.096L294.418 591.993L301.748 566.795ZM341.141 558.66L324.512 581.445L301.718 564.106L310.497 533.098L341.141 558.66ZM281.914 521.378L304.639 528.497L272.516 550.679L281.914 521.378ZM258.523 514.052L281.277 521.64L273.409 547.749L250.615 540.315L258.523 514.052ZM234.23 506.727L254.995 513.618L246.884 540.424L225.793 533.578L234.23 506.727ZM225.844 481.821L240.394 486.484L234.31 505.262L219.953 500.646L225.844 481.821ZM209.828 474.496L224.333 479.135L218.44 497.937L203.892 493.268L209.828 474.496ZM208.272 474.028L202.364 492.076L184.911 486.666L190.827 468.635L208.272 474.028ZM197.825 445.194L215.573 450.858L208.515 473.031L190.751 467.383L197.825 445.194ZM183.33 415.893L203.892 422.872L190.442 467.17L170.31 460.448L183.33 415.893ZM157.172 427.869L163.226 408.568L181.991 414.817L168.581 459.845L149.869 453.716L157.172 427.869ZM125.592 433.474L145.488 441.809L145.183 442.929L136.965 447.483L123.587 452.52L125.592 433.474ZM101.685 459.845L114.174 429.079L123.587 432.822L121.37 452.808L101.685 459.845ZM106.066 446.367L100.431 460.309L98.5461 460.985L98.3699 461.31L79.7841 453.584L85.4363 437.869L106.066 446.367ZM90.6098 421.286L90.6618 421.308L118.521 410.033L125.047 419.447L123.866 430.85L113.559 426.464L106.452 445.194L85.6244 436.054L90.6098 421.286ZM88.5446 419.429L83.444 433.474L52.0422 420.664L57.3292 407.103L88.5446 419.429ZM152.789 325.315L151.823 327.989L101.685 309.552V306.013L152.789 325.315ZM127.036 279.642L164.469 295.823L152.42 325.059L106.066 306.65L127.036 279.642ZM146.123 256.201L176.15 269.3L165.446 294.293L127.967 278.702L146.123 256.201ZM190.291 306.013L167.39 295.981L184.759 253.271L203.892 261.986L190.291 306.013ZM227.254 271.51L217.431 290.342L199.512 291.362L208.641 263.526L227.254 271.51ZM246.235 230.278L226.675 270.852L208.272 262.31L208.441 261.75L222.911 219.574L246.235 230.278ZM274.166 228.253C267.253 235.303 253.877 227.9 253.747 227.826L253.643 227.768L250.615 226.419L270.759 185.878L300.258 198.959C296.111 203.789 281.223 221.054 274.166 228.253ZM333.064 216.996L296.75 256.201L272.516 235.967L273.595 234.731C275.434 234.017 277.196 232.937 278.781 231.358C286.155 224.007 301.232 206.915 305.551 201.993L336.761 213.352L333.064 216.996ZM332.789 266.456L303.178 256.371L335.929 221.423L340.837 216.644L346.981 221.413L332.789 266.456ZM357.872 273.782L335.3 265.756L348.796 221.039L368.883 237.317L357.872 273.782ZM393.623 251.806L374.723 237.6L399.545 235.69L393.623 251.806ZM409.39 232.76L412.685 266.456L398.084 254.227L405.04 233.132L409.39 232.76ZM436.535 247.597L437.507 248.352L421.906 273.782L416.268 269.139L412.685 233.133L434.5 231.295L436.535 247.597ZM449.188 231.295L438.403 247.41L438.07 247.173L436.047 232.31L449.188 231.295ZM452.108 225.584L449.292 230.127L435.286 231.295L430.207 190.969L446.711 188.808L452.108 225.584ZM468.169 260.425L479.155 241.55L488.61 241.914V291.498L468.77 294.293L468.169 260.425ZM468.008 294.292L468.169 310.408L450.648 296.607L468.008 294.292ZM448.764 295.758L447.728 294.888L466.415 262.061L466.709 293.206L448.764 295.758ZM423.535 330.919L421.446 322.234L436.993 298.087L443.275 297.223L443.347 297.281L423.535 330.919ZM429.927 355.825L424.366 333.406L440.996 306.013L449.188 347.951L429.927 355.825ZM430.207 411.498L430.632 356.386L449.188 348.5L448.023 411.158L430.207 411.498ZM429.004 414.756L447.728 414.428L447.351 433.077L428.746 445.194L429.004 414.756ZM407.939 413.579C409.53 413.373 411.206 413.249 412.973 413.214L425.826 412.963L425.574 446.181L406.845 459.845L407.939 413.579ZM388.929 473.03L387.972 437.749L387.963 437.652C387.951 437.566 386.845 428.892 392.318 422.117C395.566 418.097 400.438 415.524 406.845 414.428L405.729 460.951L388.929 473.03ZM388.108 478.599L405.385 467.17L404.765 492.076H387.864L388.108 478.599ZM386.404 480.356L386.194 492.076H370.343L386.404 480.356ZM363.042 469.714L365.84 412.895L381.838 416.252L400.484 353.519L401.856 351.43L409.765 353.116L409.065 354.263L408.946 354.454L407.477 412.625C400.21 413.751 394.658 416.516 390.939 420.895C384.898 428.01 385.896 436.755 386.006 437.583L387.313 473.65L364.876 489.146V470.224L363.042 469.714ZM313.399 522.843L326.57 478.891L358.662 492.593L313.399 522.843ZM345.266 533.098L328 519.786L345.521 508.192L345.266 533.098ZM288.554 500.867L311.939 508.413L306.291 527.238L282.737 519.612L288.554 500.867ZM263.84 493.542L287.117 500.976L281.182 519.913L257.916 512.455L263.84 493.542ZM263.756 492.621L257.906 511.122L237.474 504.632L243.521 486.216L263.756 492.621ZM239.701 474.496L243.314 475.427L240.597 483.286L237.474 482.331L239.701 474.496ZM215.514 453.985L224.333 456.795L218.512 475.961L209.732 473.035L215.514 453.985ZM222.873 430.204L216.683 449.589L199.512 444.131L205.735 424.683L222.873 430.204ZM221.985 369.011L238.934 374.737L223.784 424.683L206.812 418.929L221.985 369.011ZM140.55 396.934L139.729 396.65L137.525 397.524L125.047 392.362L137.32 361.686L165.93 374.467L157.349 402.707L140.55 396.934ZM124.727 393.917L135.268 398.321L120.667 404.172L124.727 393.917ZM123.587 392.854L119.3 402.707L114.826 389.522L123.587 392.854ZM136.728 362.31L124.371 392.452L114.995 388.667L101.685 347.035L136.728 362.31ZM138.332 361.686L101.685 345.807V311.873L151.329 330.999L138.332 361.686ZM177.61 340.926L173.842 352.895L146.948 342.335L151.681 330.919L177.61 340.926ZM179.07 337.019L178.266 339.71L152.789 329.331L153.891 326.524L179.07 337.019ZM180.241 335.314L154.249 324.832L166.048 295.758L189.291 305.961L180.241 335.314ZM238.299 273.782L230.174 270.085L249.975 229.83L253.019 231.199C254.195 231.853 262.9 236.477 271.056 234.936L238.299 273.782ZM262.519 294.293L241.079 276.928L240.541 277.577L240.885 276.809L238.934 275.958L271.756 238.62L295.878 258.585L262.519 294.293ZM320.853 301.618L301.718 295.082L312.294 260.596L330.92 267.392L320.853 301.618ZM352.622 290.81L343.456 287.478L339.298 294.293L328 290.807L334.961 267.921L357.202 275.766L352.622 290.81ZM382.023 285.009L376.023 303.802L348.441 307.478L358.006 276.712L382.023 285.009ZM388.84 262.45L382.365 284.037L358.662 275.323L369.381 238.62L390.784 256.554L388.84 262.45ZM368.645 357.795L376.267 345.57L399.545 350.67L398.478 352.323L398.409 352.429L380.469 414.428L365.962 411.313L368.645 357.795ZM349.901 406.896L369.508 344.105L374.723 345.301L367.383 356.999L367.266 357.185L364.598 410.033L349.901 406.896ZM363.56 430.544L344.061 424.611L348.944 410.033L364.502 413.129L363.56 430.544ZM316.283 473.234L308.816 495.007L301.718 493.652L309.996 456.915L326.54 462.465L322.575 475.98L316.283 473.234ZM316.591 495.007L310.479 493.873L317.315 474.496L322.16 476.55L316.591 495.007ZM278.702 448.124L301.718 455.727L288.259 499.402L265.216 491.915L278.702 448.124ZM264.95 443.729L276.897 447.847L263.843 492.076L252.075 488.087L264.95 443.729ZM247.744 464.24L253.535 466.076L248.001 484.751L241.854 482.711L247.744 464.24ZM247.695 464.021L244.398 473.03L240.394 472.056L243.186 462.775L247.695 464.021ZM244.66 456.915L249.155 458.217L247.549 462.775L243.315 461.56L244.66 456.915ZM228.83 452.52L243.315 456.672L241.954 461.31L227.254 457.14L228.83 452.52ZM218.557 448.124L227.253 450.758L225.736 455.45L217.033 452.843L218.557 448.124ZM233.094 433.388L227.71 449.589L218.493 446.875L223.914 430.544L233.094 433.388ZM230.891 407.103L239.296 413.767L238.636 418.602L243.315 423.062L242.235 429.079L225.793 423.605L230.891 407.103ZM260.836 381.609L257.821 391.323V392.964H249.301L246.948 402.948L251.017 411.11L240.582 414.428L231.634 406.857L241.178 374.871L260.836 381.609ZM246.665 363.151L263.756 372.715C263.532 373.728 263.178 375.901 262.578 380.731L243.315 374.217L246.665 363.151ZM229.508 341.592L228.475 336.407C232.373 332.295 235.653 328.759 237.714 326.524L252.075 331.097L238.943 373.406L221.413 367.62L229.508 341.592ZM205.352 359.399C212.322 353.059 221.035 344.141 228.029 336.779L228.714 340.212L221.133 364.616L205.352 359.399ZM214.251 386.592L184.911 377.571C188.813 373.975 192.71 370.68 195.948 368.548C197.799 367.328 200.152 365.449 202.803 363.151L219.953 368.681L214.251 386.592ZM286.372 338.245L272.516 333.856L284.318 289.897L300.258 295.086L286.372 338.245ZM307.332 345.57L287.117 339.155L301.053 295.758L320.699 302.166L307.332 345.57ZM358.749 361.686L335.3 354.311L340.296 338.245L364.502 343.672L358.749 361.686ZM345.337 407.103L322.16 399.215L335.088 355.825L358.662 363.564L345.337 407.103ZM295.018 392.452L317.779 400.168L302.559 451.055L279.817 443.314L295.018 392.452ZM244.775 431.13L245.937 424.591L252.608 420.288L258.399 433.121H263.629L272.922 427.823L274.901 422.577L282.737 425.5L277.654 442.264L244.775 431.13ZM250.856 439.334L256.455 441.069L250.952 456.915L246.235 455.526L250.856 439.334ZM278.357 387.05L271.5 412.963L266.56 405.747L259.376 392.792L263.308 382.196L278.357 387.05ZM264.898 371.906L270.561 372.867L272.674 368.348C273.915 367.643 280.144 364.135 285.657 361.686L278.558 385.127L263.756 380.038C264.161 376.73 264.634 373.28 264.898 371.906ZM250.508 345.57L273.977 353.849L273.457 361.831C270.407 364.185 265.839 367.724 264.291 369.011L246.235 359.225L250.508 345.57ZM275.367 364.612L275.675 364.375L276.007 359.308C277.699 358.776 280.021 358.437 280.763 359.204C281.736 360.208 282.411 361.824 282.737 362.739C277.54 365.16 272.86 367.709 272.554 367.875L272.318 368.003L270.376 371.941L266.676 371.346C268.749 369.705 272.68 366.673 275.367 364.612ZM285.378 339.724C285.384 341.488 285.506 346.186 286.611 348.103C287.37 349.418 287.139 355.1 286.801 358.606C285.622 359.099 284.397 359.647 283.178 360.22C282.805 359.161 282.079 357.434 280.995 356.267C279.679 354.854 277 355.32 275.437 355.756L275.804 349.911L280.856 338.245L285.378 339.724ZM301.328 363.151C299.572 360.646 295.518 356.124 290.099 357.913C289.614 358.073 289.105 358.254 288.583 358.451C288.817 355.723 289.174 349.842 288.101 348C287.368 346.739 287.154 343.285 287.117 341.175L306.099 347.327L301.328 363.151ZM309.051 348.5L332.38 355.814L319.122 398.312L295.878 390.757L309.051 348.5ZM281.277 385.274L288.965 361.368C289.798 361.051 290.596 360.765 291.338 360.529C296.758 358.81 300.851 364.761 301.718 366.147L294.4 389.522L281.277 385.274ZM288.845 405.638L276.897 400.733L280.181 388.057L292.958 392.265L288.845 405.638ZM261.533 412.158L268.022 411.498L273.976 420.16L271.873 425.748L263.167 430.544H259.206L253.535 418.489L261.533 412.158ZM266.126 407.209L268.136 410.372L262.225 411.024L256.04 415.893L254.995 410.861L266.07 407.103L266.126 407.209ZM283.59 423.218L275.639 420.295L272.516 415.821L276.052 402.707L288.578 407.647L283.59 423.218ZM279.817 338.709L274.734 350.534L274.586 352.895L252.075 344.61L256.181 330.919L279.817 338.709ZM265.216 405.067L254.571 408.568L250.615 400.83L252.579 392.452H258.75L258.477 392.806L265.216 405.067ZM240.921 413.587L250.973 410.033L252.075 415.57L251.058 416.403L244.207 421.753L240.394 417.788L240.921 413.587ZM247.695 437.794L243.154 453.985L228.714 449.657L233.996 433.474L247.695 437.794ZM257.659 458.38L252.075 456.572L257.055 440.799L262.296 442.585L257.659 458.38ZM256.483 465.705L250.615 463.666L252.152 458.38L257.915 460.406L256.483 465.705ZM327.213 458.38L304.638 450.601L319.649 399.777L342.601 407.655L327.213 458.38ZM365.323 342.64L341.141 336.798L348.895 309.93L376.183 306.013L365.323 342.64ZM374.692 344.105L368.883 342.801L380.694 305.792L401.005 303.083L374.692 344.105ZM344.508 310.441L344.688 310.501L345.521 310.387L332.18 354.36L309.019 346.893L322.299 303.083L344.508 310.441ZM326.162 294.182L338.947 297.923L343.168 291.362L351.362 294.188L346.674 308.786L345.463 308.943L323.62 302.103L326.162 294.182ZM275.437 286.049L285.657 273.782L282.086 288.432L275.437 286.049ZM274.948 286.967L282.737 289.589L271.237 333.849L241.854 324.229C242.388 323.633 242.733 323.244 242.847 323.116L274.948 286.967ZM185.744 336.322L186.06 336.599L238.944 275.247L241.245 276.27L262.296 293.658L239.337 318.717L219.183 298.853L218.009 300.063L238.196 319.961C233.966 324.559 204.972 355.908 194.386 363.023C187.111 367.911 177.143 377.897 170.31 385.127L185.744 336.322ZM145.318 342.64L173.23 353.433L167.313 371.941L138.188 359.577L145.318 342.64ZM208.746 405.638L170.31 392.218C173.72 388.617 178.421 383.792 183.234 379.266L214.113 388.769L208.746 405.638ZM313.591 506.727L290.038 499.065L303.462 455.45L308.786 457.211L300.254 494.531L316.319 497.553L313.591 506.727ZM360.122 490.611L328 477.281L332.111 464.24L360.122 473.211V490.611ZM332.38 459.004L343.097 424.683L363.042 431.193L361.153 468.635L332.38 459.004ZM401.744 349.965L377.643 344.872L404.817 302.822L436.047 298.688L401.744 349.965ZM410.106 351.43L402.465 349.756L419.362 323.594L421.446 332.235L410.106 351.43ZM414.146 351.052L423.963 333.849L428.746 354.36L414.146 351.052ZM410.624 352.895L427.286 356.449L426.847 410.908L413.459 411.154C411.658 411.188 409.943 411.306 408.305 411.498L409.743 354.345L410.624 352.895ZM441.887 295.364L406.845 300.153L420.598 278.177L441.887 295.364ZM462.329 268.115L446.648 294.293L422.906 275.329L438.713 250.341L462.329 268.115ZM449.718 229.83L476.93 239.309L461.931 264.991L438.967 247.266L449.718 229.83ZM417.066 278.037L402.393 301.733L382.023 304.548L394.304 264.683L395.686 260.596L417.066 278.037ZM301.444 257.666L310.479 260.984L299.888 295.758L284.197 290.363L288.815 272.2L301.444 257.666ZM199.301 293.796L218.605 292.679L218.555 291.845L219.312 292.222L229.53 272.317L237.474 275.778L186.371 333.849L199.301 293.796ZM151.442 424.683L136.342 417.703H127.081L120.667 408.92L140.78 401.242L157.169 406.652L151.442 424.683ZM147.742 439.334L126.507 431.796L127.738 421.753H136.319L151.329 427.97L147.742 439.334ZM163.009 403.733L165.36 396.39C165.94 395.748 167.216 394.341 168.978 392.452L208.272 406.264L204.768 417.358L163.009 403.733ZM219.953 476.95L225.847 458.38L240.394 462.818L235.213 481.821L219.953 476.95ZM313.399 530.207L325.81 521.378L344.061 536.514L343.869 556.539L313.399 530.207ZM493.853 182.948C494.052 183.592 494.252 184.236 494.451 184.883L479.663 237.92L479.226 238.62L450.501 229.262L453.217 225.145L453.39 224.879L447.728 188.623L493.853 182.948ZM333.398 146.321L355.742 157.061L331.255 206.389L306.099 197.33L333.398 146.321ZM271.056 187.025L250.617 226.9L225.793 216.185L241.125 174.157L271.056 187.025ZM221.413 163.05L235.809 127.275L253.535 134.896L236.214 169.762L221.413 163.05ZM183.451 252.353L176.951 267.921L148.408 255.147L159.104 241.55L183.451 252.353ZM98.2323 304.548L100.353 305.294V344.853L99.9019 344.931L113.366 386.592L72.4836 370.418L97.2388 305.306L98.2323 304.548ZM90.5897 307.289L66.6432 327.989L66.9442 317.26L76.7696 294.292L92.9249 300.88L90.5897 307.289ZM51.1653 366.081L65.1831 371.533L59.3717 386.592L38.9014 377.445L51.1653 366.081ZM63.5144 389.707L69.6483 373.406L112.564 390.527L117.746 406.547L89.4761 417.358L57.8826 404.678L62.913 391.306L98.4938 407.616L99.1909 406.059L63.5144 389.707ZM101.266 503.797L85.6244 497.159L102.292 465.206L120.667 458.38L101.266 503.797ZM211.193 527.146L219.118 500.867L233.094 505.53L224.941 531.633L211.193 527.146ZM199.512 564.187L210.357 528.703L224.333 533.205L213.238 568.26L199.512 564.187ZM316.319 598.528L344.201 560.934L357.202 571.605L328.188 607.817L316.319 598.528ZM406.845 510.549L407.172 497.937H425.826L414.481 528.703L406.845 510.549ZM469.629 411.617L475.47 411.498L469.669 415.893L469.629 411.617ZM468.169 417.86L449.188 430.544L449.528 413.297L468.118 412.963L468.169 417.86ZM515.606 330.313L514.892 287.765L531.376 285.502L532.413 330.919L515.606 330.313ZM529.968 242.173L530.953 284.697L514.204 286.967L513.432 241.55L529.968 242.173ZM520.01 118.485L536.793 126.316L517.544 170.709L515.817 169.949L513.556 171.227L506.131 147.365L507.253 147.045L520.01 118.485ZM418.373 161.208L441.885 158.042L446.268 187.578L414.146 191.738L418.373 161.208ZM384.944 166.187L382.036 167.948L381.786 168.097L381.582 168.297L357.202 156.562L365.181 140.461L384.101 146.797L384.944 166.187ZM385.698 165.367L384.944 147.786L403.925 154.211L385.698 165.367ZM339.681 131.677L305.004 196.778L303.846 196.358L302.753 197.598L272.516 184.57L304.771 119.95L339.681 131.677ZM246.235 99.9655L235.3 125.81L227.254 122.52L237.134 96.5087L246.235 99.9655ZM141.108 232.318L115.894 272.317L110.446 269.743L126.377 225.434L141.108 232.318ZM52.0423 406.567L46.7707 420.288L15.5399 407.363L20.4648 393.917L52.0423 406.567ZM44.237 563.865L59.3427 571.952L35.1596 597.561L22.8404 586.127L44.237 563.865ZM52.3366 613.677L37.4413 599.962L62.038 574.12L68.1033 577.343L52.3366 613.677ZM118.531 538.958L92.9249 525.39L97.9554 514.052L123.587 520.729L121.664 527.43L118.531 538.958ZM154.249 509.041L168.551 461.31L189.291 468.065L174.514 515.517L154.249 509.041ZM170.445 525.773L149.869 520.326L152.782 511.122L173.23 517.309L170.445 525.773ZM176.186 600.491L179.07 604.269L165.93 612.212L166.806 607.68L176.186 600.491ZM206.475 626.862L189.291 619.877L203.468 609.282L212.653 619.687L206.475 626.862ZM223.38 605.8L221.556 607.817L214.113 599.957L236.014 584.375L234.376 589.902L225.978 593.307L223.38 605.8ZM239.689 577.05L215.573 569.894L226.756 534.563L247.695 541.309L247.306 542.586L240.075 576.772L239.689 577.05ZM376.84 582.059L384.504 572.949L383.208 571.863L375.524 580.997L360.122 568.563L405.721 512.587L422.906 552.088L390.601 593.166L376.84 582.059ZM432.396 569.725L424.366 551.234L445.503 524.308L444.999 550.389L444.989 550.804L446.268 551.822L432.396 569.725ZM440.263 588.771L433.127 571.457L447.33 552.144L459.408 562.285L440.263 588.771ZM448.303 552.144H447.728L448.723 497.937H469.629V522.977L448.303 552.144ZM520.425 381.884L515.76 385.127L514.892 333.849L529.982 334.388L533.873 359.941L520.425 381.884ZM523.653 380.731L534.001 364.616L535.333 372.977L523.653 380.731ZM536.794 380.43L532.413 380.731L536.629 377.801L536.794 380.43ZM555.775 78.5696C556.253 78.209 556.732 77.846 557.235 77.4628L556.583 78.9279L555.775 78.5696ZM554.374 78.9279L555.775 79.5909L537.186 124.345L520.732 116.33L532.914 87.8564C540.731 86.1265 548.435 83.3557 554.374 78.9279ZM530.953 87.7183L519.832 112.624L510.512 89.9044C516.372 89.6789 523.644 89.1137 530.953 87.7183ZM408.022 132.018L396.263 139.169L397.07 140.652L408.608 133.634C411.085 140.458 413.101 145.905 414.146 148.711L406.529 153.646L386.011 146.295L384.944 119.95L406.537 127.909C407.046 129.319 407.542 130.69 408.022 132.018ZM270.583 81.5116L278.357 87.6792L269.109 105.299L249.155 97.0869L257.81 75.9978L270.583 81.5116ZM179.15 163.111L185.888 158.475L189.037 149.771L195.131 152.41L177.444 193.203L170.55 190.205L175.867 177.636L174.317 176.985L169.008 189.536L163.009 186.926L181.071 146.321L187.493 149.102L184.488 157.401L178.195 161.73L179.15 163.111ZM177.61 146.308L160.297 187.343L146.948 181.224L164.8 140.461L177.61 146.308ZM184.772 120.222L187.831 128.161L180.518 144.856L167.39 139.081L177.417 117.02L184.772 120.222ZM185.724 117.938L177.61 114.615L180.696 108.229L188.43 112.143L190.751 111.033L186.547 119.95L185.724 117.938ZM151.945 65.4504L151.989 65.4623L128.493 121.415L113.366 114.664L133.957 65.9132L142.03 60.9367L148.246 58.417L152.789 64.9047V65.4504H151.945ZM15.2523 136.065L2.39905 129.985L24.2409 97.9738L30.1408 100.754L15.2523 136.065ZM32.3854 101.209L32.7087 100.455L25.556 97.1495L35.1773 83.3231L56.4225 92.6805L33.9539 144.856L17 136.99L32.3854 101.209ZM141.108 628.328L163.503 556.539L186.371 562.977L175.478 599.592L165.371 607.643L164.122 614.382L163.792 614.577L169.726 626.968L168.48 628.328H141.108ZM176.15 629.038L187.882 621.002L206.812 628.056L205.925 637.118L176.15 629.038ZM206.812 637.275L207.723 627.041L224.107 607.817L234.554 610.511L230.775 644.443L206.812 637.275ZM288.002 650.303L281.277 633.564L284.011 624.174L322.005 610.747L330.92 634.298L288.002 650.303ZM496.478 619.82L456.488 623.932L485.811 584.375L506.905 601.198L507.592 604.516L496.478 619.82ZM509.125 619.537L511.972 633.454L496.058 657.629L478.39 645.498L496.039 620.899L509.125 619.537ZM497.371 618.072L506.655 606.352L509.052 616.972L497.371 618.072ZM571.158 337.537L571.836 346.991L536.815 371.941L535.333 361.974L550.403 336.779L571.158 337.537ZM569.271 251.63L570.376 280.156L552.854 282.572L552.91 244.48L569.271 251.63ZM573.449 194.668L565.995 191.36L584.954 147.786L593.737 151.915L573.449 194.668ZM594.527 153.438L632.449 171.251L633.16 169.726L595.248 151.915L595.317 151.772L593.806 151.047L593.73 151.203L575.901 142.828L595.964 98.8698L604.123 102.597L604.816 101.065L596.66 97.3396L596.996 96.6029L595.474 95.8998L595.135 96.643L579.261 89.3941L608.287 26.0936L603.724 23.981L597.576 37.3898L596.516 36.1965C596.211 36.4722 565.714 63.7549 551.435 74.7924C551.284 74.908 551.114 75.0164 550.961 75.1303L536.368 53.3042C557.438 42.7566 574.256 29.4855 574.522 29.2744L574.658 29.1635L583.227 12.8055L581.746 12.0215L573.343 28.0631C570.672 30.1535 530.536 61.166 497.409 64.1737C491.266 64.7323 485.211 65.9572 479.412 67.8158C461.161 73.665 449.53 84.4802 445.339 88.9015C441.48 84.6961 438.663 81.1784 438.124 79.418C437.827 78.4518 437.85 76.993 437.875 75.4492C437.929 71.9961 438.003 67.2716 434.127 64.0102C428.772 59.5042 417.579 59.2238 397.836 63.0954C395.675 63.5193 393.628 63.8586 391.687 64.12C393.238 43.9795 409.218 16.69 409.409 16.3681L405.09 13.7911C404.275 15.1683 387.932 43.0721 386.647 64.6347C361.917 66.3737 357.161 53.6639 353.583 44.0702C352.474 41.1009 351.518 38.5369 350.096 36.5885C346.57 31.7596 333.197 24.182 321.25 18.0567L324.601 11.7853L320.173 9.3973L316.761 15.7864C309.088 11.9583 302.717 9.03285 301.09 8.29172L299.018 12.8908C302.668 14.554 308.273 17.2047 314.375 20.2529L299.625 47.8698L274.182 35.0199L281.146 18.3447L279.602 17.6926L272.682 34.2617L250.959 23.2909L254.344 15.4124L252.806 14.7464L249.459 22.5334L247.242 21.4139L246.49 22.9179L248.793 24.0817L221.526 87.5131L194.779 74.2668L203.273 55.7074L211.969 59.2986L223.969 43.9914L232.18 18.277L230.586 17.7626L222.467 43.187L211.436 57.2598L203.975 54.1766L221.384 16.1342L216.817 14.0246L140.944 179.817L127.124 175.764L178.752 51.2909L180.301 51.1512L207.209 12.0273L203.076 9.15558L177.506 46.3341L148.343 48.9696L73.9177 12.8055L71.7309 17.3526L76.6401 19.7379L33.8399 80.5899L-28.9509 53.2318L-1.54694 6.52999L-2.98848 5.67462L-30.498 52.5573L-75.6309 32.892L-76.2971 34.4351L-31.3543 54.0171L-39.2187 67.4194L-75.6177 50.7813L-76.3106 52.3128L-40.0743 68.8766L-59.5658 102.094L-83.0156 91.3286L-85.1016 95.9206L-2.50638 133.835L-20.7347 173.907L-83.7112 145.036L-84.4064 146.568L-36.5535 168.506C-37.9023 171.425 -43.0545 182.632 -50.742 200.001L-94.8965 181.023L-95.5562 182.571L-51.4203 201.539C-53.7221 206.749 -56.2355 212.475 -58.9355 218.681C-60.4529 222.171 -61.4621 225.524 -62.0565 228.729L-91.4626 211.974L-92.2881 213.438L-62.3427 230.501C-63.7206 240.291 -61.2557 248.634 -57.7095 255.184L-74.213 291.463L-72.6896 292.163L-56.6847 256.98C-52.0346 264.732 -46.1115 269.645 -44.2886 271.049L-58.6409 304.072L-102.981 284.312L-103.66 285.85L-59.3114 305.614L-67.3368 324.08L-85.4799 316.432L-86.1281 317.983L-68.0077 325.622L-72.1246 335.098L-70.5911 335.772L-66.464 326.274L-31.0092 341.221L-40.8189 363.982L-79.4335 348.586L-81.2868 353.279L-42.8166 368.617L-70.7075 433.324L-97.4226 422.389L-98.0539 423.948L-71.3736 434.869L-79.1077 452.81L-74.4962 454.818L-66.7184 436.774L-55.7608 441.259L-76.5075 459.064L-75.4208 460.346L-54.0155 441.974L-6.85979 461.276L-16.1779 486.596L-89.1029 462.553L-89.6242 464.152L-16.7598 488.175L-22.6275 504.12L-134.322 466.901L-134.85 468.499L-23.2074 505.698L-29.1911 521.955L-103.052 496.77L-103.59 498.364L-29.7727 523.534L-35.1241 538.075L-91.584 516.984L-92.1676 518.562L-35.7046 539.654L-41.8521 556.36L-83.7822 541.577L-84.336 543.165L-42.4333 557.938L-48.8014 575.241L-86.5523 560.706L-87.1511 562.276L-49.3819 576.819L-55.9442 594.648L-107.458 572.542L-108.116 574.091L-56.5261 596.229L-63.1096 614.118L-94.4204 603.464L-96.0322 608.247L-64.853 618.856L-72.1429 638.666L-70.5728 639.25L-63.267 619.396L-29.8772 630.756L-79.3408 664.929L-76.4946 669.09L-24.18 632.948L-7.96674 642L-70.2825 706.256L-69.0842 707.431L-6.44873 642.845L29.3995 662.859L18.4467 695.919L20.0354 696.449L30.9341 663.542L70.746 679.128L56.5883 709.707L61.144 711.836L75.367 681.118L96.7907 691.126L95.3413 695.939L96.9436 696.429L98.3253 691.842L112.522 698.474L114.64 693.894L99.7956 686.961L110.302 652.092L115.549 653.851L116.078 652.255L110.787 651.154L116.287 633.568H130.861L115.001 696.653L116.625 696.723L124.141 666.346L144.286 663.999L134.895 698.953L136.512 699.371L146.005 663.995L164.153 669.105L154.574 705.438L156.193 705.868L169.251 656.325L186.175 660.919L178.518 693.253L180.148 693.643L187.793 661.358L205.077 666.05L198.137 689.492L199.742 689.972L206.694 666.489L224.443 671.308L218.289 695.98L219.913 696.388L232.379 646.416L249.086 651.155L238.393 689.506L240.006 689.958L243.61 677.033L261.712 681.495L256.189 700.526L261.012 701.941L266.717 682.287L294.94 672.662L301.372 688.713L302.926 688.086L296.53 672.121L338.784 657.713L345.561 675.662L334.197 687.823L335.42 688.977L346.222 677.415L350.985 690.031L352.55 689.434L347.498 676.049L374.933 646.686L388.121 656.917L363.377 689.606L367.377 692.662L392.099 660L414.255 677.186L404.343 690.634L405.689 691.636L415.582 678.215L427.672 687.595L428.696 686.26L416.58 676.863L442.422 641.806L465.527 660.602L442.164 692.955L443.519 693.942L455.625 677.178L476.955 691.83L477.9 690.44L456.609 675.815L466.83 661.662L517.887 703.195L521.05 699.27L488.356 672.676L496.865 659.829L521.337 676.527L524.092 689.902L525.732 689.561L514.217 633.637L524.711 617.8L546.681 615.526L565.973 691.344L567.596 690.926L548.363 615.352L569.76 613.14L586.064 691.307L587.704 690.962L571.435 612.967L591.45 610.897L603.78 634.52L608.231 632.175L596.832 610.341L619.212 608.025L619.04 606.352L595.995 608.734L558.168 536.265L593.122 508.897L592.093 507.57L557.167 534.914L539.75 516.84L598.668 475.544L597.709 474.163L538.569 516.206L520.374 497.919H550.504L607.586 450.97L604.428 446.747L582.822 464.145L580.503 432.929L611.91 431.305L611.825 429.605L580.377 431.188L576.517 379.361L624.487 376.11L624.374 374.432L576.391 377.675L574.403 350.98L593.752 337.705L600.895 337.958L601.07 332.911L573.021 331.925L571.817 301.723L586.329 278.355L592.718 277.5L592.496 275.83L587.48 276.504L595.805 263.101L597.863 263.974L598.515 262.425L596.702 261.654L601.693 253.62L600.272 252.73L595.138 260.992L570.05 250.342L589.652 204.767L590.313 205.061L590.99 203.52L590.318 203.222L601.75 176.642L600.212 175.975L588.785 202.542L574.272 196.106L594.527 153.438Z" fill="#B6C5CE"/>
</g>
<path d="M91.917 197L67 267.128L143.949 297.078L125.628 356.911L270 403" stroke="url(#paint1_linear)" stroke-width="5"/>
<g filter="url(#filter0_d)">
<path fill-rule="evenodd" clip-rule="evenodd" d="M92.5 207C98.299 207 103 202.299 103 196.5C103 190.701 98.299 186 92.5 186C86.701 186 82 190.701 82 196.5C82 202.299 86.701 207 92.5 207Z" fill="#84D15F"/>
<path fill-rule="evenodd" clip-rule="evenodd" d="M92.5 207C98.299 207 103 202.299 103 196.5C103 190.701 98.299 186 92.5 186C86.701 186 82 190.701 82 196.5C82 202.299 86.701 207 92.5 207Z" stroke="white" stroke-width="5"/>
</g>
<g filter="url(#filter1_d)">
<path fill-rule="evenodd" clip-rule="evenodd" d="M270.5 414C276.299 414 281 409.299 281 403.5C281 397.701 276.299 393 270.5 393C264.701 393 260 397.701 260 403.5C260 409.299 264.701 414 270.5 414Z" fill="#031FC5"/>
<path fill-rule="evenodd" clip-rule="evenodd" d="M270.5 414C276.299 414 281 409.299 281 403.5C281 397.701 276.299 393 270.5 393C264.701 393 260 397.701 260 403.5C260 409.299 264.701 414 270.5 414Z" stroke="white" stroke-width="5"/>
</g>
<defs>
<filter id="filter0_d" x="79.5" y="183.5" width="26" height="26" filterUnits="userSpaceOnUse" color-interpolation-filters="sRGB">
<feFlood flood-opacity="0" result="BackgroundImageFix"/>
<feColorMatrix in="SourceAlpha" type="matrix" values="0 0 0 0 0 0 0 0 0 0 0 0 0 0 0 0 0 0 127 0"/>
<feOffset/>
<feColorMatrix type="matrix" values="0 0 0 0 0.545098 0 0 0 0 0.854902 0 0 0 0 0.352941 0 0 0 0.435066 0"/>
<feBlend mode="normal" in2="BackgroundImageFix" result="effect1_dropShadow"/>
<feBlend mode="normal" in="SourceGraphic" in2="effect1_dropShadow" result="shape"/>
</filter>
<filter id="filter1_d" x="257.5" y="390.5" width="26" height="26" filterUnits="userSpaceOnUse" color-interpolation-filters="sRGB">
<feFlood flood-opacity="0" result="BackgroundImageFix"/>
<feColorMatrix in="SourceAlpha" type="matrix" values="0 0 0 0 0 0 0 0 0 0 0 0 0 0 0 0 0 0 127 0"/>
<feOffset/>
<feColorMatrix type="matrix" values="0 0 0 0 0.012 0 0 0 0 0.122 0 0 0 0 0.773 0 0 0 0.536317 0"/>
<feBlend mode="normal" in2="BackgroundImageFix" result="effect1_dropShadow"/>
<feBlend mode="normal" in="SourceGraphic" in2="effect1_dropShadow" result="shape"/>
</filter>
<linearGradient id="paint0_linear" x1="17" y1="13" x2="17" y2="684" gradientUnits="userSpaceOnUse">
<stop stop-color="white"/>
<stop offset="1" stop-color="#DFDFDF"/>
</linearGradient>
<linearGradient id="paint1_linear" x1="-24.7345" y1="302.054" x2="157.348" y2="511.844" gradientUnits="userSpaceOnUse">
<stop stop-color="#84D15F"/>
<stop offset="1" stop-color="#031FC5"/>
</linearGradient>
</defs>
</svg>
